# xmcd
#
# Track frame offsets: 
#        150
#        20326
#        40011
#        60032
#        83505
#        99974
#        123809
#        138334
#        156388
#        179182
#        196901
#
# Disc length: 3348 seconds
#
# Revision: 0
# Processed by: cddbd v1.5.2PL0 Copyright (c) Steve Scherf et al.
# Submitted via: ExactAudioCopyFreeDBPlugin 1.0
#
DISCID=7f0d120b
DTITLE=纯音 - DTS51音画中国
DYEAR=2004
DGENRE=DTS
TTITLE0=小提琴独奏 - 小河淌水
TTITLE1=口哨 - 小路
TTITLE2=二胡 - 把根留住
TTITLE3=混声合唱 - 故乡的云
TTITLE4=口哨 - 丁香花
TTITLE5=洞箫 - 哭砂
TTITLE6=古筝 - 挥着翅膀的女孩
TTITLE7=笛子 - 父老乡亲
TTITLE8=古筝 - 东风破
TTITLE9=古筝 - 达玛花
TTITLE10=古筝 - 绒花
EXTD=
EXTT0=
EXTT1=
EXTT2=
EXTT3=
EXTT4=
EXTT5=
EXTT6=
EXTT7=
EXTT8=
EXTT9=
EXTT10=
PLAYORDER=
